# 3ds Max Wavefront OBJ Exporter v0.99 - (c)2007 guruware
# File Created: 16.08.2022 17:11:11

mtllib book.mtl

#
# object Cube
#

v  8.9374 0.3092 -6.1445
v  7.6607 0.6452 -6.1869
v  7.6607 0.6452 6.1869
v  8.9374 0.3092 6.1445
v  6.4291 -0.3218 -6.1886
v  6.1993 0.7165 -6.1880
v  0.7979 -0.0914 -6.1861
v  0.0000 -0.6836 -6.1996
v  -0.0000 -0.6836 6.1996
v  0.7979 -0.0914 6.1861
v  6.1993 0.7165 6.1880
v  0.8631 -1.6758 6.1886
v  -0.0000 -1.7972 6.1850
v  6.4291 -0.3218 6.1886
v  9.3671 0.0652 6.6049
v  6.5051 -0.6578 6.6143
v  6.5051 -0.6578 -6.6143
v  9.3671 0.0652 -6.6049
v  2.0592 -1.7635 6.6143
v  0.8957 -2.0425 6.6213
v  0.8957 -2.0425 -6.6213
v  2.0592 -1.7635 -6.6143
v  4.5105 -0.7885 -6.1886
v  4.0790 0.6592 -6.1874
v  2.2982 0.3438 -6.1877
v  2.2982 0.3438 6.1877
v  4.0790 0.6592 6.1874
v  0.8631 -1.6758 -6.1886
v  2.0151 -1.3956 -6.1886
v  4.5105 -0.7885 6.1886
v  2.0151 -1.3956 6.1886
v  0.0000 -2.1500 -6.6350
v  0.7949 -2.2388 -6.6093
v  0.0000 -2.4152 -6.6097
v  0.0000 -1.7972 -6.1850
v  9.2728 0.3577 6.6055
v  9.2728 0.3577 -6.6055
v  0.8631 -1.6758 -6.6143
v  0.0000 -1.8050 -6.6184
v  2.0214 -1.3941 6.6143
v  4.5108 -0.7885 6.6143
v  2.0214 -1.3941 -6.6143
v  6.4284 -0.3219 -6.6144
v  4.5108 -0.7885 -6.6143
v  0.8631 -1.6758 6.6143
v  -0.0000 -1.8050 6.6184
v  -0.0000 -2.1500 6.6350
v  6.4284 -0.3219 6.6144
v  4.5790 -1.1355 -6.6143
v  4.5790 -1.1355 6.6143
v  -0.0000 -2.4152 6.6097
v  0.7949 -2.2388 6.6093
v  -8.9374 0.3092 -6.1445
v  -8.9374 0.3092 6.1445
v  -7.6607 0.6452 6.1869
v  -7.6607 0.6452 -6.1869
v  -6.4291 -0.3218 -6.1886
v  -6.1993 0.7165 -6.1880
v  -0.7979 -0.0914 -6.1861
v  -0.7979 -0.0914 6.1861
v  -6.1993 0.7165 6.1880
v  -0.8631 -1.6758 6.1886
v  -6.4291 -0.3218 6.1886
v  -9.3671 0.0652 6.6049
v  -9.3671 0.0652 -6.6049
v  -6.5051 -0.6578 -6.6143
v  -6.5051 -0.6578 6.6143
v  -2.0592 -1.7635 6.6143
v  -2.0592 -1.7635 -6.6143
v  -0.8957 -2.0425 -6.6213
v  -0.8957 -2.0425 6.6213
v  -4.5105 -0.7885 -6.1886
v  -4.0790 0.6592 -6.1874
v  -4.0790 0.6592 6.1874
v  -2.2982 0.3438 6.1877
v  -2.2982 0.3438 -6.1877
v  -0.8631 -1.6758 -6.1886
v  -2.0151 -1.3956 -6.1886
v  -4.5105 -0.7885 6.1886
v  -2.0151 -1.3956 6.1886
v  -0.7949 -2.2388 -6.6093
v  -9.2728 0.3577 -6.6055
v  -9.2728 0.3577 6.6055
v  -0.8631 -1.6758 -6.6143
v  -4.5108 -0.7885 6.6143
v  -2.0214 -1.3941 6.6143
v  -2.0214 -1.3941 -6.6143
v  -4.5108 -0.7885 -6.6143
v  -6.4284 -0.3219 -6.6144
v  -0.8631 -1.6758 6.6143
v  -6.4284 -0.3219 6.6144
v  -4.5790 -1.1355 -6.6143
v  -4.5790 -1.1355 6.6143
v  -0.7949 -2.2388 6.6093
# 94 vertices

vn 0.2546 0.9671 0.0000
vn 0.0136 -0.0155 -0.9998
vn -0.5960 0.8030 -0.0000
vn 0.0487 0.9988 0.0000
vn 0.0078 -0.0043 1.0000
vn 0.0136 -0.0155 0.9998
vn 0.2449 -0.9695 -0.0000
vn 0.2332 -0.9724 0.0000
vn -0.0002 0.0007 -1.0000
vn -0.1744 0.9847 0.0000
vn -0.0009 0.0011 -1.0000
vn -0.0001 0.0006 1.0000
vn 0.0227 -0.0854 -0.9961
vn -0.2785 0.9604 -0.0000
vn 0.0078 -0.0043 -1.0000
vn -0.0009 0.0011 1.0000
vn -0.0270 0.9996 0.0000
vn -0.0002 0.0007 1.0000
vn -0.1430 0.9897 0.0000
vn -0.1437 0.9896 -0.0089
vn -0.2364 0.9717 0.0000
vn -0.2363 0.9717 0.0001
vn 0.9518 0.3068 -0.0000
vn 0.0033 -0.0002 -1.0000
vn 0.0057 0.0334 0.9994
vn 0.0033 -0.0002 1.0000
vn 0.0000 -0.0001 -1.0000
vn 0.0007 0.0095 -1.0000
vn -0.0000 0.0000 1.0000
vn 0.0057 0.0334 -0.9994
vn 0.0007 0.0096 1.0000
vn 0.0000 -0.0001 1.0000
vn -0.0000 0.0000 -1.0000
vn -0.2363 0.9717 -0.0001
vn 0.2418 -0.9703 0.0000
vn -0.2373 0.9707 -0.0367
vn 0.2407 -0.9706 -0.0000
vn -0.2364 0.9717 -0.0000
vn -0.1437 0.9896 0.0089
vn -0.2373 0.9707 0.0367
vn 0.2167 -0.9762 -0.0000
vn 0.8895 -0.4570 0.0000
vn 0.0227 -0.0854 0.9961
vn -0.0001 0.0006 -1.0000
vn -0.2546 0.9671 0.0000
vn -0.0136 -0.0155 -0.9998
vn 0.5960 0.8030 -0.0000
vn -0.0487 0.9988 0.0000
vn -0.0078 -0.0043 1.0000
vn -0.0136 -0.0155 0.9998
vn -0.2449 -0.9695 0.0000
vn -0.2332 -0.9724 0.0000
vn 0.0002 0.0007 -1.0000
vn 0.1744 0.9847 0.0000
vn 0.0009 0.0011 -1.0000
vn 0.0001 0.0006 1.0000
vn -0.0227 -0.0854 -0.9961
vn 0.2785 0.9604 -0.0000
vn -0.0078 -0.0043 -1.0000
vn 0.0009 0.0011 1.0000
vn 0.0270 0.9996 0.0000
vn 0.0002 0.0007 1.0000
vn 0.1430 0.9897 0.0000
vn 0.1437 0.9896 -0.0089
vn 0.2364 0.9717 0.0000
vn 0.2363 0.9717 0.0001
vn -0.9518 0.3068 0.0000
vn -0.0033 -0.0002 -1.0000
vn -0.0057 0.0334 0.9994
vn -0.0033 -0.0002 1.0000
vn -0.0000 -0.0001 -1.0000
vn -0.0007 0.0095 -1.0000
vn 0.0000 0.0000 1.0000
vn -0.0057 0.0334 -0.9994
vn -0.0007 0.0096 1.0000
vn -0.0000 -0.0001 1.0000
vn 0.0000 0.0000 -1.0000
vn 0.2363 0.9717 -0.0001
vn -0.2418 -0.9703 -0.0000
vn 0.2373 0.9707 -0.0367
vn -0.2407 -0.9706 -0.0000
vn 0.2364 0.9717 -0.0000
vn 0.1437 0.9896 0.0089
vn 0.2373 0.9707 0.0367
vn -0.2167 -0.9762 -0.0000
vn -0.8895 -0.4570 0.0000
vn -0.0227 -0.0854 0.9961
vn 0.0001 0.0006 -1.0000
# 88 vertex normals

vt 0.0149 0.1818 0.0000
vt 0.0894 0.1963 0.0000
vt 0.0934 0.8251 0.0000
vt 0.0161 0.8396 0.0000
vt 0.2494 0.1067 0.0000
vt 0.2094 0.1905 0.0000
vt 0.4567 0.1761 0.0000
vt 0.5230 0.1585 0.0000
vt 0.5253 0.8619 0.0000
vt 0.4539 0.8482 0.0000
vt 0.2110 0.8309 0.0000
vt 0.4712 0.9339 0.0000
vt 0.5256 0.9367 0.0000
vt 0.2509 0.9136 0.0000
vt 0.8717 0.6857 0.0000
vt 0.7783 0.6857 0.0000
vt 0.7783 0.3119 0.0000
vt 0.8717 0.3119 0.0000
vt 0.7084 0.6857 0.0000
vt 0.6480 0.6857 0.0000
vt 0.6480 0.3119 0.0000
vt 0.7084 0.3119 0.0000
vt 0.3264 0.0924 0.0000
vt 0.3062 0.1853 0.0000
vt 0.3848 0.1837 0.0000
vt 0.3839 0.8389 0.0000
vt 0.3061 0.8365 0.0000
vt 0.4789 0.0838 0.0000
vt 0.4015 0.0895 0.0000
vt 0.3259 0.9265 0.0000
vt 0.3988 0.9288 0.0000
vt 0.8717 0.0910 0.0000
vt 0.8717 0.1179 0.0000
vt 0.5227 0.0775 0.0000
vt 0.9327 0.3119 0.0000
vt 0.9327 0.6857 0.0000
vt 0.9327 0.0910 0.0000
vt 0.9327 0.1179 0.0000
vt 0.9327 0.8141 0.0000
vt 0.9327 0.8490 0.0000
vt 0.9327 0.1449 0.0000
vt 0.9327 0.1835 0.0000
vt 0.9327 0.2184 0.0000
vt 0.8717 0.2184 0.0000
vt 0.8717 0.8891 0.0000
vt 0.9327 0.8891 0.0000
vt 0.9327 0.9260 0.0000
vt 0.8717 0.9260 0.0000
vt 0.9327 0.7792 0.0000
vt 0.8717 0.7792 0.0000
vt 0.8717 0.1835 0.0000
vt 0.8717 0.1449 0.0000
vt 0.8717 0.8141 0.0000
vt 0.8717 0.8490 0.0000
vt 0.7433 0.3119 0.0000
vt 0.7433 0.6857 0.0000
vt 0.5891 0.6857 0.0000
vt 0.5891 0.3119 0.0000
# 58 texture coords

o Cube
g Cube
usemtl Material
s off
f 1/1/1 2/2/1 3/3/1 4/4/1 
f 5/5/2 6/6/2 2/2/2 1/1/2 
f 7/7/3 8/8/3 9/9/3 10/10/3 
f 2/2/4 6/6/4 11/11/4 3/3/4 
f 12/12/5 10/10/5 9/9/5 13/13/5 
f 4/4/6 3/3/6 11/11/6 14/14/6 
f 15/15/7 16/16/7 17/17/7 18/18/7 
f 19/19/8 20/20/8 21/21/8 22/22/8 
f 23/23/9 24/24/9 6/6/9 5/5/9 
f 24/24/10 25/25/10 26/26/10 27/27/10 
f 28/28/11 7/7/11 25/25/11 29/29/11 
f 30/30/12 27/27/12 26/26/12 31/31/12 
f 32/32/13 21/33/13 33/33/13 34/32/13 
f 25/25/14 7/7/14 10/10/14 26/26/14 
f 35/34/15 8/8/15 7/7/15 28/28/15 
f 31/31/16 26/26/16 10/10/16 12/12/16 
f 6/6/17 24/24/17 27/27/17 11/11/17 
f 14/14/18 11/11/18 27/27/18 30/30/18 
f 1/35/19 4/36/19 36/36/19 37/35/19 
f 35/37/20 28/38/20 38/38/20 39/37/20 
f 30/39/21 31/40/21 40/40/21 41/39/21 
f 28/38/22 29/41/22 42/41/22 38/38/22 
f 23/42/21 5/43/21 43/43/21 44/42/21 
f 18/18/23 37/35/23 36/36/23 15/15/23 
f 17/44/24 43/43/24 37/35/24 18/18/24 
f 20/45/25 45/46/25 46/47/25 47/48/25 
f 15/15/26 36/36/26 48/49/26 16/50/26 
f 49/51/27 44/42/27 43/43/27 17/44/27 
f 21/33/28 38/38/28 42/41/28 22/52/28 
f 50/53/29 41/39/29 40/40/29 19/54/29 
f 32/32/30 39/37/30 38/38/30 21/33/30 
f 19/54/31 40/40/31 45/46/31 20/45/31 
f 16/50/32 48/49/32 41/39/32 50/53/32 
f 22/52/33 42/41/33 44/42/33 49/51/33 
f 31/40/34 12/46/34 45/46/34 40/40/34 
f 19/19/35 22/22/35 49/55/35 50/56/35 
f 5/43/36 1/35/36 37/35/36 43/43/36 
f 16/16/37 50/56/37 49/55/37 17/17/37 
f 14/49/38 30/39/38 41/39/38 48/49/38 
f 12/46/39 13/47/39 46/47/39 45/46/39 
f 29/41/38 23/42/38 44/42/38 42/41/38 
f 4/36/40 14/49/40 48/49/40 36/36/40 
f 51/57/41 34/58/41 33/21/41 52/20/41 
f 20/20/42 52/20/42 33/21/42 21/21/42 
f 20/45/43 47/48/43 51/48/43 52/45/43 
f 29/29/44 25/25/44 24/24/44 23/23/44 
f 53/1/45 54/4/45 55/3/45 56/2/45 
f 57/5/46 53/1/46 56/2/46 58/6/46 
f 59/7/47 60/10/47 9/9/47 8/8/47 
f 56/2/48 55/3/48 61/11/48 58/6/48 
f 62/12/49 13/13/49 9/9/49 60/10/49 
f 54/4/50 63/14/50 61/11/50 55/3/50 
f 64/15/51 65/18/51 66/17/51 67/16/51 
f 68/19/52 69/22/52 70/21/52 71/20/52 
f 72/23/53 57/5/53 58/6/53 73/24/53 
f 73/24/54 74/27/54 75/26/54 76/25/54 
f 77/28/55 78/29/55 76/25/55 59/7/55 
f 79/30/56 80/31/56 75/26/56 74/27/56 
f 32/32/57 34/32/57 81/33/57 70/33/57 
f 76/25/58 75/26/58 60/10/58 59/7/58 
f 35/34/59 77/28/59 59/7/59 8/8/59 
f 80/31/60 62/12/60 60/10/60 75/26/60 
f 58/6/61 61/11/61 74/27/61 73/24/61 
f 63/14/62 79/30/62 74/27/62 61/11/62 
f 53/35/63 82/35/63 83/36/63 54/36/63 
f 35/37/64 39/37/64 84/38/64 77/38/64 
f 79/39/65 85/39/65 86/40/65 80/40/65 
f 77/38/66 84/38/66 87/41/66 78/41/66 
f 72/42/65 88/42/65 89/43/65 57/43/65 
f 65/18/67 64/15/67 83/36/67 82/35/67 
f 66/44/68 65/18/68 82/35/68 89/43/68 
f 71/45/69 47/48/69 46/47/69 90/46/69 
f 64/15/70 67/50/70 91/49/70 83/36/70 
f 92/51/71 66/44/71 89/43/71 88/42/71 
f 70/33/72 69/52/72 87/41/72 84/38/72 
f 93/53/73 68/54/73 86/40/73 85/39/73 
f 32/32/74 70/33/74 84/38/74 39/37/74 
f 68/54/75 71/45/75 90/46/75 86/40/75 
f 67/50/76 93/53/76 85/39/76 91/49/76 
f 69/52/77 92/51/77 88/42/77 87/41/77 
f 80/40/78 86/40/78 90/46/78 62/46/78 
f 68/19/79 93/56/79 92/55/79 69/22/79 
f 57/43/80 89/43/80 82/35/80 53/35/80 
f 67/16/81 66/17/81 92/55/81 93/56/81 
f 63/49/82 91/49/82 85/39/82 79/39/82 
f 62/46/83 90/46/83 46/47/83 13/47/83 
f 78/41/82 87/41/82 88/42/82 72/42/82 
f 54/36/84 83/36/84 91/49/84 63/49/84 
f 51/57/85 94/20/85 81/21/85 34/58/85 
f 71/20/86 70/21/86 81/21/86 94/20/86 
f 71/45/87 94/45/87 51/48/87 47/48/87 
f 78/29/88 72/23/88 73/24/88 76/25/88 
# 92 polygons

